<?xml version="1.0" encoding="UTF-8"?>
<svg xmlns="http://www.w3.org/2000/svg" viewBox="91 0 53 42">
  <defs>
    <linearGradient id="g" x1="92.08" y1="21.22" x2="143.33" y2="21.22" gradientUnits="userSpaceOnUse">
      <stop offset="0" stop-color="#a91314"/>
      <stop offset="1" stop-color="#f9ae04"/>
    </linearGradient>
  </defs>
  <path fill="url(#g)" d="M143.16,2.24c-.25-.48-.72-.76-1.27-.76h-4.88c-.49,0-.91.22-1.18.63l-14.7,21.55v-15c0-.78-.63-1.42-1.42-1.42h-4c-.78,0-1.42.63-1.42,1.42v15l-14.7-21.55c-.28-.4-.7-.63-1.18-.63h-4.88c-.54,0-1.01.28-1.27.76-.25.48-.22,1.03.08,1.48l21.11,30.62c.21.3.5.51.85.59v4.62c0,.78.63,1.42,1.42,1.42h4c.78,0,1.42-.63,1.42-1.42v-4.62c.34-.08.64-.28.85-.59l21.11-30.62c.31-.45.33-1,.08-1.48Z"/>
</svg>
