<?xml version="1.0" encoding="UTF-8"?>
<svg id="Layer_1" data-name="Layer 1" xmlns="http://www.w3.org/2000/svg" xmlns:xlink="http://www.w3.org/1999/xlink" version="1.1" viewBox="0 0 369.81 86.23">
  <defs>
    <style>
      .cls-1 {
        fill: url(#linear-gradient);
      }

      .cls-1, .cls-2 {
        stroke-width: 0px;
      }

      .cls-2 {
        fill: #fff;
      }
    </style>
    <linearGradient id="linear-gradient" x1="92.08" y1="21.22" x2="143.33" y2="21.22" gradientUnits="userSpaceOnUse">
      <stop offset="0" stop-color="#a91314"/>
      <stop offset="1" stop-color="#f9ae04"/>
    </linearGradient>
  </defs>
  <path class="cls-1" d="M143.16,2.24c-.25-.48-.72-.76-1.27-.76h-4.88c-.49,0-.91.22-1.18.63l-14.7,21.55v-15c0-.78-.63-1.42-1.42-1.42h-4c-.78,0-1.42.63-1.42,1.42v15l-14.7-21.55c-.28-.4-.7-.63-1.18-.63h-4.88c-.54,0-1.01.28-1.27.76-.25.48-.22,1.03.08,1.48l21.11,30.62c.21.3.5.51.85.59v4.62c0,.78.63,1.42,1.42,1.42h4c.78,0,1.42-.63,1.42-1.42v-4.62c.34-.08.64-.28.85-.59l21.11-30.62c.31-.45.33-1,.08-1.48Z"/>
  <g>
    <path class="cls-2" d="M30.97,14.78H11.39c-1.7,0-3.08-1.39-3.08-3.08v-.3c0-1.7,1.39-3.08,3.08-3.08h25.88c.78,0,1.42-.64,1.42-1.42v-4c0-.78-.64-1.42-1.42-1.42H10.12C5.37,1.48,1.48,5.37,1.48,10.12v2.85c0,4.75,3.89,8.64,8.64,8.64h19.57c1.7,0,3.08,1.39,3.08,3.08v.3c0,1.7-1.39,3.08-3.08,3.08H3.81c-.78,0-1.42.63-1.42,1.42v4c0,.78.64,1.42,1.42,1.42h27.16c4.75,0,8.64-3.89,8.64-8.64v-2.85c0-4.76-3.89-8.64-8.64-8.64Z"/>
    <rect class="cls-2" x="47.69" y="1.48" width="36.3" height="6.83" rx="1.42" ry="1.42"/>
    <path class="cls-2" d="M82.57,28.08h-28.2v-6.47h24.72c.78,0,1.42-.64,1.42-1.42v-4c0-.78-.64-1.42-1.42-1.42h-29.99c-.78,0-1.42.64-1.42,1.42v4c0,.08.01.16.02.24v8.83c-.01.08-.02.16-.02.24v4c0,.78.64,1.42,1.42,1.42h33.47c.78,0,1.42-.64,1.42-1.42v-4c0-.78-.64-1.42-1.42-1.42Z"/>
    <rect class="cls-2" x="151.03" y="1.48" width="36.3" height="6.83" rx="1.42" ry="1.42"/>
    <path class="cls-2" d="M185.91,34.92c.78,0,1.42-.64,1.42-1.42v-4c0-.78-.64-1.42-1.42-1.42h-28.21v-6.47h24.73c.78,0,1.42-.64,1.42-1.42v-4c0-.78-.64-1.42-1.42-1.42h-29.99c-.78,0-1.42.64-1.42,1.42v4c0,.06.01.11.02.16v8.98c0,.05-.02.11-.02.16v4c0,.78.64,1.42,1.42,1.42h33.47Z"/>
    <path class="cls-2" d="M202.23,33.5V10.95l23.93,23.56c.27.27.61.41.99.41h4.95c.78,0,1.42-.64,1.42-1.42V2.9c0-.78-.64-1.42-1.42-1.42h-4c-.78,0-1.42.64-1.42,1.42v22.55L202.76,1.89c-.27-.27-.61-.41-.99-.41h-4.95c-.78,0-1.42.64-1.42,1.42v30.6c0,.78.64,1.42,1.42,1.42h4c.78,0,1.42-.64,1.42-1.42Z"/>
    <path class="cls-2" d="M279.22,1.48h-36.21c-.78,0-1.42.64-1.42,1.42v4c0,.78.64,1.42,1.42,1.42h14.69v25.19c0,.78.64,1.42,1.42,1.42h4c.78,0,1.42-.64,1.42-1.42V8.31h14.69c.78,0,1.42-.64,1.42-1.42v-4c0-.78-.64-1.42-1.42-1.42Z"/>
    <path class="cls-2" d="M325.47,1.48h-4c-.78,0-1.42.64-1.42,1.42v11.88h-24.46V2.9c0-.78-.64-1.42-1.42-1.42h-4c-.78,0-1.42.64-1.42,1.42v30.6c0,.78.64,1.42,1.42,1.42h4c.78,0,1.42-.64,1.42-1.42v-11.88h24.46v11.88c0,.78.64,1.42,1.42,1.42h4c.78,0,1.42-.64,1.42-1.42V2.9c0-.78-.64-1.42-1.42-1.42Z"/>
    <path class="cls-2" d="M179.46,64.72h-19.47c-1.69,0-3.07-1.38-3.07-3.07v-.3c0-1.69,1.38-3.07,3.07-3.07h25.76c.78,0,1.41-.63,1.41-1.41v-3.98c0-.78-.63-1.41-1.41-1.41h-27.02c-4.73,0-8.6,3.87-8.6,8.6v2.83c0,4.73,3.87,8.6,8.6,8.6h19.47c1.69,0,3.07,1.38,3.07,3.07v.3c0,1.69-1.38,3.07-3.07,3.07h-25.76c-.78,0-1.41.63-1.41,1.41v3.98c0,.78.63,1.41,1.41,1.41h27.02c4.73,0,8.6-3.87,8.6-8.6v-2.83c0-4.73-3.87-8.6-8.6-8.6Z"/>
    <rect class="cls-2" x="196.1" y="51.48" width="36.12" height="6.8" rx="1.41" ry="1.41"/>
    <path class="cls-2" d="M230.81,77.96h-28.06v-6.44h24.6c.78,0,1.41-.63,1.41-1.41v-3.98c0-.78-.63-1.41-1.41-1.41h-29.84c-.78,0-1.41.63-1.41,1.41v3.98c0,.07.01.14.02.21v8.84c-.01.07-.02.14-.02.21v3.98c0,.78.63,1.41,1.41,1.41h33.3c.78,0,1.41-.63,1.41-1.41v-3.98c0-.78-.63-1.41-1.41-1.41Z"/>
    <path class="cls-2" d="M276.78,51.48h-3.98c-.78,0-1.41.63-1.41,1.41v22.44l-23.81-23.44c-.27-.27-.61-.4-.99-.4h-4.93c-.78,0-1.41.63-1.41,1.41v30.45c0,.78.63,1.41,1.41,1.41h3.98c.78,0,1.41-.63,1.41-1.41v-22.44l23.81,23.44c.27.27.61.4.99.4h4.93c.78,0,1.41-.63,1.41-1.41v-30.45c0-.78-.63-1.41-1.41-1.41Z"/>
    <path class="cls-2" d="M315.57,64.72h-19.47c-1.69,0-3.07-1.38-3.07-3.07v-.3c0-1.69,1.38-3.07,3.07-3.07h25.76c.78,0,1.41-.63,1.41-1.41v-3.98c0-.78-.63-1.41-1.41-1.41h-27.02c-4.73,0-8.6,3.87-8.6,8.6v2.83c0,4.73,3.87,8.6,8.6,8.6h19.47c1.69,0,3.07,1.38,3.07,3.07v.3c0,1.69-1.38,3.07-3.07,3.07h-25.76c-.78,0-1.41.63-1.41,1.41v3.98c0,.78.63,1.41,1.41,1.41h27.02c4.73,0,8.6-3.87,8.6-8.6v-2.83c0-4.73-3.87-8.6-8.6-8.6Z"/>
    <rect class="cls-2" x="332.21" y="51.48" width="36.12" height="6.8" rx="1.41" ry="1.41"/>
    <path class="cls-2" d="M366.92,77.96h-28.08v-6.44h24.62c.78,0,1.41-.63,1.41-1.41v-3.98c0-.78-.63-1.41-1.41-1.41h-29.84c-.78,0-1.41.63-1.41,1.41v3.98s0,.02,0,.03v9.19s0,.02,0,.03v3.98c0,.78.63,1.41,1.41,1.41h33.3c.78,0,1.41-.63,1.41-1.41v-3.98c0-.78-.63-1.41-1.41-1.41Z"/>
  </g>
</svg>