<?xml version="1.0" encoding="UTF-8"?>
<svg xmlns="http://www.w3.org/2000/svg" viewBox="0 0 1200 800" fill="none">
  <g stroke="#ffffff" stroke-width="1" opacity="0.6">
    <!-- Lines connecting nodes -->
    <line x1="50" y1="60" x2="200" y2="120"/>
    <line x1="200" y1="120" x2="150" y2="250"/>
    <line x1="50" y1="60" x2="150" y2="250"/>
    <line x1="200" y1="120" x2="380" y2="80"/>
    <line x1="380" y1="80" x2="500" y2="180"/>
    <line x1="200" y1="120" x2="320" y2="200"/>
    <line x1="150" y1="250" x2="320" y2="200"/>
    <line x1="320" y1="200" x2="500" y2="180"/>
    <line x1="320" y1="200" x2="400" y2="350"/>
    <line x1="500" y1="180" x2="650" y2="150"/>
    <line x1="500" y1="180" x2="550" y2="320"/>
    <line x1="400" y1="350" x2="550" y2="320"/>
    <line x1="550" y1="320" x2="700" y2="280"/>
    <line x1="650" y1="150" x2="800" y2="100"/>
    <line x1="650" y1="150" x2="700" y2="280"/>
    <line x1="700" y1="280" x2="850" y2="250"/>
    <line x1="800" y1="100" x2="950" y2="130"/>
    <line x1="800" y1="100" x2="850" y2="250"/>
    <line x1="850" y1="250" x2="950" y2="130"/>
    <line x1="950" y1="130" x2="1100" y2="80"/>
    <line x1="850" y1="250" x2="1000" y2="320"/>
    <line x1="1000" y1="320" x2="1100" y2="80"/>
    <line x1="1000" y1="320" x2="1150" y2="280"/>
    <line x1="1100" y1="80" x2="1150" y2="280"/>
    <line x1="400" y1="350" x2="300" y2="480"/>
    <line x1="300" y1="480" x2="450" y2="520"/>
    <line x1="550" y1="320" x2="450" y2="520"/>
    <line x1="450" y1="520" x2="600" y2="500"/>
    <line x1="600" y1="500" x2="700" y2="280"/>
    <line x1="600" y1="500" x2="750" y2="450"/>
    <line x1="750" y1="450" x2="850" y2="250"/>
    <line x1="750" y1="450" x2="900" y2="500"/>
    <line x1="900" y1="500" x2="1000" y2="320"/>
    <line x1="300" y1="480" x2="180" y2="550"/>
    <line x1="180" y1="550" x2="100" y2="680"/>
    <line x1="180" y1="550" x2="350" y2="650"/>
    <line x1="450" y1="520" x2="350" y2="650"/>
    <line x1="350" y1="650" x2="500" y2="700"/>
    <line x1="600" y1="500" x2="500" y2="700"/>
    <line x1="500" y1="700" x2="680" y2="680"/>
    <line x1="680" y1="680" x2="750" y2="450"/>
    <line x1="900" y1="500" x2="1050" y2="550"/>
    <line x1="1050" y1="550" x2="1150" y2="280"/>
    <line x1="1050" y1="550" x2="1100" y2="700"/>
    <line x1="680" y1="680" x2="850" y2="720"/>
    <line x1="850" y1="720" x2="1100" y2="700"/>
    <line x1="150" y1="250" x2="80" y2="400"/>
    <line x1="80" y1="400" x2="180" y2="550"/>
    <line x1="50" y1="60" x2="80" y2="400"/>
  </g>
  <g fill="#ffffff">
    <!-- Nodes (large) -->
    <circle cx="50" cy="60" r="6"/>
    <circle cx="380" cy="80" r="6"/>
    <circle cx="500" cy="180" r="5"/>
    <circle cx="400" cy="350" r="6"/>
    <circle cx="850" cy="250" r="5"/>
    <circle cx="1000" cy="320" r="6"/>
    <circle cx="450" cy="520" r="5"/>
    <circle cx="750" cy="450" r="6"/>
    <circle cx="350" cy="650" r="5"/>
    <circle cx="1100" cy="700" r="6"/>
    <circle cx="100" cy="680" r="5"/>
    <!-- Nodes (small) -->
    <circle cx="200" cy="120" r="3.5"/>
    <circle cx="150" cy="250" r="3.5"/>
    <circle cx="320" cy="200" r="3"/>
    <circle cx="650" cy="150" r="3.5"/>
    <circle cx="550" cy="320" r="3"/>
    <circle cx="700" cy="280" r="3.5"/>
    <circle cx="800" cy="100" r="3"/>
    <circle cx="950" cy="130" r="3.5"/>
    <circle cx="1100" cy="80" r="3"/>
    <circle cx="1150" cy="280" r="3.5"/>
    <circle cx="300" cy="480" r="3"/>
    <circle cx="600" cy="500" r="3.5"/>
    <circle cx="900" cy="500" r="3"/>
    <circle cx="180" cy="550" r="3.5"/>
    <circle cx="500" cy="700" r="3"/>
    <circle cx="680" cy="680" r="3.5"/>
    <circle cx="850" cy="720" r="3"/>
    <circle cx="1050" cy="550" r="3.5"/>
    <circle cx="80" cy="400" r="3"/>
  </g>
</svg>
